<?xml version="1.0" standalone="no"?>
<!DOCTYPE svg PUBLIC "-//W3C//DTD SVG 20010904//EN"
 "http://www.w3.org/TR/2001/REC-SVG-20010904/DTD/svg10.dtd">
<svg version="1.0" xmlns="http://www.w3.org/2000/svg"
 width="2000.000000pt" height="2000.000000pt" viewBox="0 0 2000.000000 2000.000000"
 preserveAspectRatio="xMidYMid meet">

<g transform="translate(0.000000,2000.000000) scale(0.100000,-0.100000)"
fill="#000000" stroke="none">
<path d="M0 10000 l0 -10000 1414 0 1414 0 3148 3607 c1732 1984 3258 3734
3391 3888 133 154 255 292 270 307 27 28 27 28 10 55 -86 132 -98 293 -32 428
101 208 350 297 561 201 63 -29 153 -110 188 -170 78 -133 76 -333 -4 -446
-18 -25 -20 -34 -10 -45 10 -12 16 -13 28 -3 23 19 70 125 83 186 6 33 15 52
22 49 7 -2 43 -10 80 -18 61 -11 76 -11 135 4 73 19 120 21 141 8 7 -5 62 -57
122 -116 l109 -107 65 4 c36 2 65 0 65 -4 0 -4 -17 -19 -37 -32 -84 -55 -203
-53 -299 5 -95 57 -107 60 -158 45 -24 -7 -59 -24 -77 -38 -19 -13 -53 -32
-77 -41 -38 -14 -49 -14 -99 -1 -30 8 -61 17 -67 21 -6 3 2 -8 18 -25 16 -17
42 -34 57 -37 16 -4 29 -13 29 -21 0 -25 29 -73 51 -85 11 -6 53 -16 92 -23
l72 -13 -51 -25 -52 -24 332 -380 c182 -209 655 -751 1051 -1204 395 -454 899
-1032 1120 -1284 595 -684 1082 -1242 2649 -3039 l1419 -1627 1413 0 1414 0 0
10000 0 10000 -608 -524 c-6070 -5231 -9387 -8086 -9392 -8086 -5 0 -3322
2855 -9392 8086 l-608 524 0 -10000z m5503 1380 c239 -23 513 -83 797 -176 92
-30 170 -54 174 -54 3 0 6 36 6 80 l0 80 85 0 85 0 0 -405 0 -405 -82 0 -83 0
-44 71 c-133 216 -462 473 -753 588 -146 57 -247 75 -428 76 -144 0 -174 -3
-235 -22 -129 -41 -214 -129 -258 -267 -22 -70 -22 -77 -22 -681 0 -543 2
-618 17 -684 48 -206 157 -324 348 -378 92 -26 495 -26 652 0 137 23 310 67
419 107 86 31 123 51 366 194 153 90 205 104 242 65 27 -29 27 -48 -2 -90 -57
-86 -330 -242 -554 -319 -144 -48 -355 -94 -520 -111 -147 -16 -561 -16 -748
0 -441 37 -833 133 -1140 281 -187 91 -330 203 -435 341 -128 170 -180 328
-180 545 0 178 40 322 127 464 58 92 222 259 319 323 287 189 784 335 1279
376 147 12 444 12 568 1z m10152 -15 c232 -37 410 -80 662 -160 94 -30 174
-55 177 -55 3 0 6 36 6 80 l0 80 83 0 83 0 2 -405 2 -405 -83 0 -84 0 -53 83
c-124 190 -407 422 -655 537 -170 79 -351 120 -530 120 -291 -1 -444 -109
-496 -350 -6 -30 -9 -273 -6 -661 3 -552 5 -620 21 -674 57 -192 157 -295 341
-352 51 -15 95 -18 295 -18 262 0 345 9 555 60 219 53 293 84 530 225 171 101
209 120 242 120 70 0 95 -64 49 -125 -50 -65 -271 -198 -448 -269 -173 -69
-390 -121 -618 -147 -133 -16 -573 -15 -750 0 -545 47 -1025 187 -1320 384
-104 69 -254 224 -312 323 -153 257 -166 591 -33 854 99 196 311 390 546 499
295 137 695 236 1089 270 157 14 585 5 705 -14z m-6018 -495 c284 -242 519
-440 522 -439 3 0 132 197 286 437 l281 437 1157 3 1158 2 -3 -72 -3 -73 -355
-5 -355 -5 -63 -29 c-63 -29 -123 -84 -145 -134 -16 -36 -23 -1331 -8 -1444
19 -140 84 -225 208 -270 54 -21 80 -22 391 -26 l332 -4 0 -69 0 -69 -1465 0
-1465 0 0 -25 c0 -14 -7 -42 -15 -63 -34 -80 -37 -121 -14 -168 11 -24 33 -53
49 -64 15 -11 42 -41 59 -67 32 -47 37 -81 25 -154 l-6 -36 -51 19 c-29 11
-90 22 -139 25 l-88 6 0 78 c0 71 -4 85 -35 145 -36 68 -44 118 -24 157 7 12
37 59 67 105 47 70 57 93 63 144 4 35 3 73 -3 90 -16 45 -3 44 45 -6 l44 -46
164 0 c90 0 194 5 230 10 168 24 262 112 289 271 7 43 10 294 8 764 l-3 700
-516 -800 -516 -800 -85 -3 -86 -3 -653 552 -654 552 -3 -254 c-3 -255 3 -322
35 -424 41 -130 163 -282 287 -360 152 -94 402 -177 576 -189 47 -4 104 -9
128 -12 l42 -5 0 -70 0 -69 -1180 0 -1180 0 0 69 c0 79 2 81 101 81 148 0 412
73 569 156 109 58 182 115 237 184 138 174 169 308 160 688 -3 165 -9 230 -22
272 -55 178 -210 343 -423 451 -167 86 -358 136 -557 148 l-110 6 -3 73 -3 72
1100 0 1100 0 518 -440z m763 -2063 c34 -79 26 -157 -25 -231 -49 -71 -86 -96
-111 -76 -14 12 -16 27 -11 90 3 44 11 76 18 79 6 2 25 16 43 31 28 25 31 34
30 87 0 32 -3 72 -8 88 l-8 30 25 -23 c14 -13 35 -47 47 -75z m-1174 50 c53
-27 98 -71 132 -127 11 -19 34 -48 51 -64 l30 -29 99 6 c124 7 156 -1 210 -56
l43 -44 -51 -33 c-28 -18 -74 -59 -102 -91 -28 -33 -55 -59 -60 -59 -5 0 -28
18 -51 39 -41 38 -80 54 -190 76 -58 12 -93 61 -131 187 -42 135 -66 170 -131
189 -75 22 -51 40 46 35 34 -2 74 -13 105 -29z m1728 -32 c-4 -22 -14 -56 -24
-75 -25 -50 -109 -125 -156 -140 -88 -29 -131 -57 -148 -100 -9 -22 -16 -54
-16 -71 0 -50 -21 -123 -44 -148 -23 -26 -90 -71 -106 -71 -5 0 -10 7 -10 15
0 28 -47 121 -89 172 l-41 53 65 50 c55 44 68 60 85 109 24 63 58 107 97 122
14 5 79 14 145 19 66 6 132 16 147 23 14 6 40 33 56 58 34 52 49 46 39 -16z
m-1237 33 c61 -27 112 -69 132 -111 29 -61 46 -154 30 -173 -19 -23 -41 -16
-99 36 -52 47 -54 50 -51 94 3 60 -10 80 -81 127 l-61 39 51 0 c28 0 64 -5 79
-12z m-271 -478 c32 -12 72 -32 88 -45 26 -21 28 -27 19 -48 -10 -20 -22 -25
-85 -34 -65 -10 -75 -9 -88 7 -36 42 -66 52 -120 41 -28 -6 -64 -18 -80 -26
-17 -9 -30 -12 -30 -9 0 19 56 77 93 96 86 43 119 46 203 18z m1379 -87 c-24
-135 -159 -223 -301 -197 -42 8 -49 13 -52 34 -2 21 9 32 60 67 61 40 65 42
104 31 57 -16 85 -5 141 51 26 27 50 49 52 50 2 1 0 -16 -4 -36z m-1302 -155
c-3 -46 1 -97 10 -138 9 -35 14 -67 11 -71 -2 -3 -32 -12 -66 -19 -78 -16 -90
-22 -144 -72 -62 -57 -104 -70 -168 -51 -28 8 -82 28 -119 44 -37 17 -89 32
-115 35 -41 5 -52 2 -90 -26 -24 -17 -46 -30 -48 -28 -2 2 6 23 18 47 25 50
64 82 138 111 48 19 67 21 147 16 121 -8 151 3 192 76 46 82 99 128 157 137
87 15 82 20 77 -61z m72 -288 c9 -30 -65 -161 -87 -154 -35 11 -86 -23 -112
-75 -15 -28 -26 -59 -26 -70 0 -38 -19 -31 -31 11 -22 82 14 195 76 242 80 61
168 84 180 46z"/>
<path d="M4230 11121 c-239 -85 -404 -186 -557 -341 -215 -216 -302 -469 -249
-721 64 -300 370 -576 790 -714 59 -19 111 -35 117 -35 25 0 3 19 -53 46 -159
75 -310 184 -418 302 -155 168 -218 345 -207 587 11 243 86 410 269 601 99
103 204 182 331 249 48 26 87 51 87 56 0 5 -1 9 -2 8 -2 0 -50 -17 -108 -38z"/>
<path d="M14240 11120 c-256 -90 -482 -243 -627 -423 -224 -278 -247 -615 -62
-889 97 -144 248 -266 454 -368 132 -65 339 -139 352 -126 9 8 8 9 -93 58
-133 66 -226 131 -332 232 -140 134 -201 234 -244 396 -28 110 -28 296 2 416
68 276 276 516 600 693 88 48 69 52 -50 11z"/>
<path d="M7880 11136 c14 -13 406 -346 873 -740 813 -687 849 -716 887 -716
l40 0 0 108 0 108 -745 632 -745 632 -167 0 -168 0 25 -24z"/>
<path d="M11010 10205 l0 -956 108 3 107 3 3 953 2 952 -110 0 -110 0 0 -955z"/>
</g>
</svg>
